<svg version="1.1" id="Layer_1" xmlns="http://www.w3.org/2000/svg" xmlns:xlink="http://www.w3.org/1999/xlink" x="0px" y="0px"
	 width="100%" viewBox="0 0 208 167" enable-background="new 0 0 208 167" xml:space="preserve">
<path fill="#FFFFFF" opacity="1.000000" stroke="none" 
	d="
M1.000000,67.000000 
	C1.000000,44.666672 1.000000,22.833344 1.000000,1.000012 
	C70.333313,1.000008 139.666626,1.000008 208.999954,1.000004 
	C208.999969,56.666630 208.999969,112.333260 208.999985,167.999908 
	C139.666718,167.999939 70.333435,167.999939 1.000077,167.999969 
	C1.000000,134.500000 1.000000,101.000000 1.000000,67.000000 
M135.902863,163.964127 
	C141.642044,163.167892 147.381241,162.371658 153.853210,161.390472 
	C169.649017,155.313049 179.889633,141.171829 179.960999,124.776337 
	C180.079697,97.508865 180.098709,70.239922 179.952652,42.972710 
	C179.864029,26.426977 168.912399,11.767433 152.513870,6.070961 
	C144.008118,5.435850 135.502350,4.800738 126.067757,4.036937 
	C116.710342,4.079776 107.352928,4.122614 97.066757,4.037113 
	C85.709343,4.080016 74.351929,4.122918 62.101822,4.038663 
	C37.511383,3.836164 20.018242,21.032854 19.999306,45.472519 
	C19.979042,71.624130 19.929585,97.775993 20.015064,123.927353 
	C20.090729,147.075195 38.965454,164.938721 62.924278,163.970184 
	C74.281425,163.924957 85.638565,163.879730 97.925323,163.969040 
	C105.949486,163.923843 113.973648,163.878647 122.916534,163.965561 
	C126.944206,163.921478 130.971878,163.877396 135.902863,163.964127 
z"/>
<path fill="#6965F2" opacity="1.000000" stroke="none" 
	d="
M61.994835,163.833954 
	C38.965454,164.938721 20.090729,147.075195 20.015064,123.927353 
	C19.929585,97.775993 19.979042,71.624130 19.999306,45.472519 
	C20.018242,21.032854 37.511383,3.836164 62.549980,4.559233 
	C62.991577,28.025860 62.985023,50.971916 62.837906,74.224792 
	C54.427216,83.050323 54.428093,83.049500 62.610184,91.774086 
	C62.831226,92.009781 62.982372,92.311043 63.118786,93.074554 
	C63.047642,110.711159 63.109417,127.855705 62.955105,144.998322 
	C62.898567,151.279236 62.329887,157.555542 61.994835,163.833954 
z"/>
<path fill="#7363F3" opacity="1.000000" stroke="none" 
	d="
M62.459557,163.902069 
	C62.329887,157.555542 62.898567,151.279236 62.955105,144.998322 
	C63.109417,127.855705 63.047642,110.711159 63.415932,93.253586 
	C66.361992,95.505486 68.925575,98.111275 71.576721,100.624718 
	C73.866516,102.795593 76.496506,103.852036 78.943771,101.090691 
	C81.242722,98.496689 79.756500,96.181778 77.692131,94.165718 
	C74.040115,90.599167 70.384933,87.035835 65.960457,82.719353 
	C70.346992,78.662827 74.508186,75.316757 77.958611,71.352104 
	C79.169678,69.960541 79.618683,66.418587 78.687325,64.969009 
	C76.920326,62.218811 74.161804,63.149807 71.943382,65.336159 
	C68.997322,68.239632 65.970558,71.061211 62.978470,73.917976 
	C62.985023,50.971916 62.991577,28.025860 62.996323,4.622811 
	C74.351929,4.122918 85.709343,4.080016 97.523804,4.484788 
	C97.818329,9.281601 97.522110,13.630809 97.524414,17.979858 
	C97.527939,24.615377 97.864403,31.251560 97.824005,37.886024 
	C97.784691,44.341270 97.185692,50.801552 97.353096,57.246098 
	C97.438797,60.545425 98.663101,63.815178 99.337906,67.499191 
	C95.321625,81.935196 91.306274,95.960831 87.386444,110.013107 
	C86.565865,112.954826 85.944397,116.265015 89.668640,117.686241 
	C92.946480,118.937103 94.392822,116.376114 95.921494,114.093384 
	C96.841156,120.469658 97.850830,126.608955 97.872910,132.751785 
	C97.910133,143.111511 97.321266,153.473465 96.995712,163.834488 
	C85.638565,163.879730 74.281425,163.924957 62.459557,163.902069 
z"/>
<path fill="#7B61F4" opacity="1.000000" stroke="none" 
	d="
M99.372810,67.098297 
	C98.663101,63.815178 97.438797,60.545425 97.353096,57.246098 
	C97.185692,50.801552 97.784691,44.341270 97.824005,37.886024 
	C97.864403,31.251560 97.527939,24.615377 97.524414,17.979858 
	C97.522110,13.630809 97.818329,9.281601 97.988182,4.548958 
	C107.352928,4.122614 116.710342,4.079776 126.533318,4.558136 
	C126.973671,24.802732 126.948456,44.526131 126.579697,64.154991 
	C124.208954,64.520889 121.141220,64.379318 120.433258,65.603004 
	C119.650604,66.955788 120.354904,70.207809 121.593704,71.494987 
	C125.208351,75.250748 129.412430,78.439232 134.158096,82.513420 
	C129.191849,87.092453 125.687012,90.336792 122.167587,93.565231 
	C118.893913,96.568253 118.170898,99.561409 122.103577,103.068604 
	C122.040855,123.652718 122.019333,143.743073 121.997810,163.833435 
	C113.973648,163.878647 105.949486,163.923843 97.460518,163.901764 
	C97.321266,153.473465 97.910133,143.111511 97.872910,132.751785 
	C97.850830,126.608955 96.841156,120.469658 96.029961,113.708511 
	C101.253624,93.874611 106.662560,74.643402 112.248672,55.463787 
	C113.234070,52.080479 113.155792,49.300682 109.471153,48.278873 
	C105.916931,47.293228 104.555962,49.917969 103.694832,52.892418 
	C102.318535,57.646347 100.819794,62.364830 99.372810,67.098297 
z"/>
<path fill="#875DF6" opacity="1.000000" stroke="none" 
	d="
M153.126801,6.425367 
	C168.912399,11.767433 179.864029,26.426977 179.952652,42.972710 
	C180.098709,70.239922 180.079697,97.508865 179.960999,124.776337 
	C179.889633,141.171829 169.649017,155.313049 153.456177,160.963913 
	C153.081696,109.166695 153.104248,57.796028 153.126801,6.425367 
z"/>
<path fill="#815FF5" opacity="1.000000" stroke="none" 
	d="
M152.820343,6.248164 
	C153.104248,57.796028 153.081696,109.166695 153.089783,161.056396 
	C147.381241,162.371658 141.642044,163.167892 135.451385,163.498932 
	C134.975983,139.949020 134.952057,116.864326 135.074356,93.489426 
	C136.503555,91.896729 137.779312,90.587036 139.070755,89.293007 
	C144.590012,83.762711 144.603302,82.404022 139.101746,76.731667 
	C135.054657,72.558929 130.983612,68.409401 126.923248,64.249527 
	C126.948456,44.526131 126.973671,24.802732 126.997742,4.622481 
	C135.502350,4.800738 144.008118,5.435850 152.820343,6.248164 
z"/>
<path fill="#7F5FF4" opacity="1.000000" stroke="none" 
	d="
M134.928131,93.779633 
	C134.952057,116.864326 134.975983,139.949020 134.999725,163.433502 
	C130.971878,163.877396 126.944206,163.921478 122.457169,163.899506 
	C122.019333,143.743073 122.040855,123.652718 122.459518,103.134583 
	C124.545868,101.953499 126.468597,101.494972 127.873131,100.382309 
	C130.389267,98.389023 132.593521,96.002060 134.928131,93.779633 
z"/>
<path fill="#FAFAFF" opacity="1.000000" stroke="none" 
	d="
M62.837902,74.224792 
	C65.970558,71.061211 68.997322,68.239632 71.943382,65.336159 
	C74.161804,63.149807 76.920326,62.218811 78.687325,64.969009 
	C79.618683,66.418587 79.169678,69.960541 77.958611,71.352104 
	C74.508186,75.316757 70.346992,78.662827 65.960457,82.719353 
	C70.384933,87.035835 74.040115,90.599167 77.692131,94.165718 
	C79.756500,96.181778 81.242722,98.496689 78.943771,101.090691 
	C76.496506,103.852036 73.866516,102.795593 71.576721,100.624718 
	C68.925575,98.111275 66.361992,95.505486 63.463249,92.760757 
	C62.982372,92.311043 62.831226,92.009781 62.610184,91.774086 
	C54.428093,83.049500 54.427216,83.050323 62.837902,74.224792 
z"/>
<path fill="#FAF9FF" opacity="1.000000" stroke="none" 
	d="
M99.337906,67.499191 
	C100.819794,62.364830 102.318535,57.646347 103.694832,52.892418 
	C104.555962,49.917969 105.916931,47.293228 109.471153,48.278873 
	C113.155792,49.300682 113.234070,52.080479 112.248672,55.463787 
	C106.662560,74.643402 101.253624,93.874611 95.675903,113.473129 
	C94.392822,116.376114 92.946480,118.937103 89.668640,117.686241 
	C85.944397,116.265015 86.565865,112.954826 87.386444,110.013107 
	C91.306274,95.960831 95.321625,81.935196 99.337906,67.499191 
z"/>
<path fill="#F8F6FE" opacity="1.000000" stroke="none" 
	d="
M135.074356,93.489426 
	C132.593521,96.002060 130.389267,98.389023 127.873131,100.382309 
	C126.468597,101.494972 124.545868,101.953499 122.500717,102.640823 
	C118.170898,99.561409 118.893913,96.568253 122.167587,93.565231 
	C125.687012,90.336792 129.191849,87.092453 134.158096,82.513420 
	C129.412430,78.439232 125.208351,75.250748 121.593704,71.494987 
	C120.354904,70.207809 119.650604,66.955788 120.433258,65.603004 
	C121.141220,64.379318 124.208954,64.520889 126.579697,64.154991 
	C130.983612,68.409401 135.054657,72.558929 139.101746,76.731667 
	C144.603302,82.404022 144.590012,83.762711 139.070755,89.293007 
	C137.779312,90.587036 136.503555,91.896729 135.074356,93.489426 
z"/>
</svg>