<svg version="1.1" id="Layer_1" xmlns="http://www.w3.org/2000/svg" xmlns:xlink="http://www.w3.org/1999/xlink" x="0px" y="0px"
	 width="100%" viewBox="0 0 208 167" enable-background="new 0 0 208 167" xml:space="preserve">
<path fill="#000000" opacity="1.000000" stroke="none" 
	d="
M132.000000,168.000000 
	C88.029015,168.000000 44.558033,168.000000 1.087047,168.000000 
	C1.058030,167.862457 1.003591,167.724930 1.003582,167.587387 
	C0.999935,112.124405 1.000000,56.661423 1.000000,1.099221 
	C70.220810,1.099221 139.441818,1.099221 208.831406,1.099221 
	C208.831406,56.666252 208.831406,112.333084 208.831406,168.000000 
	C183.465942,168.000000 157.982971,168.000000 132.000000,168.000000 
M135.921753,163.975845 
	C141.633621,163.366089 147.345474,162.756332 153.814789,162.049271 
	C168.601410,156.867432 180.065994,143.255722 180.871185,126.603607 
	C180.913956,98.550941 180.964828,70.498268 180.960388,42.445614 
	C180.960251,41.602768 180.381302,40.760010 180.048874,39.074501 
	C179.745041,37.174664 179.662079,35.206905 179.102127,33.385822 
	C174.969894,19.947437 165.907532,11.177577 152.186218,6.013348 
	C144.002945,2.511318 135.426788,4.369252 126.074051,4.022120 
	C116.716591,4.070598 107.359131,4.119077 97.074104,4.022377 
	C85.716766,4.070767 74.359428,4.119159 62.089615,4.022728 
	C56.923050,4.662147 51.551205,4.609958 46.628551,6.071118 
	C32.065811,10.393684 21.065533,23.900146 19.125650,38.401352 
	C19.083849,67.997124 19.031944,97.592896 19.043509,127.188644 
	C19.043901,128.193344 19.682680,129.197800 19.977419,130.987900 
	C21.414684,135.233780 22.159958,139.894333 24.411816,143.652054 
	C33.077888,158.113312 45.591854,165.805695 63.929939,163.972717 
	C75.287155,163.926178 86.644379,163.879623 98.929428,163.973587 
	C106.619850,163.926819 114.310272,163.880051 122.917725,163.975296 
	C126.945564,163.927994 130.973404,163.880692 135.921753,163.975845 
z"/>
<path fill="#6965F2" opacity="1.000000" stroke="none" 
	d="
M19.879295,37.967373 
	C21.065533,23.900146 32.065811,10.393684 46.628551,6.071118 
	C51.551205,4.609958 56.923050,4.662147 62.545425,4.553130 
	C63.000877,24.898472 62.962288,44.713566 63.043617,64.528175 
	C63.055103,67.325676 63.651642,70.120766 63.830421,73.219879 
	C61.925209,75.297897 60.234135,77.146370 58.393742,78.831810 
	C55.237183,81.722610 55.493122,84.493118 58.367638,87.388031 
	C60.356857,89.391380 62.245747,91.494339 64.010735,93.966537 
	C63.561382,96.828102 63.044853,99.275192 63.037243,101.723854 
	C62.972870,122.426735 63.001396,143.129898 63.002026,163.832977 
	C45.591854,165.805695 33.077888,158.113312 24.411816,143.652054 
	C22.159958,139.894333 21.414684,135.233780 20.069921,130.116714 
	C20.105595,123.425797 20.011036,117.606140 19.998493,111.786308 
	C19.945463,87.180031 19.916842,62.573689 19.879295,37.967373 
z"/>
<path fill="#7363F3" opacity="1.000000" stroke="none" 
	d="
M63.977379,72.916977 
	C63.651642,70.120766 63.055103,67.325676 63.043617,64.528175 
	C62.962288,44.713566 63.000877,24.898472 63.001663,4.625541 
	C74.359428,4.119159 85.716766,4.070767 97.537537,4.552963 
	C98.000725,23.247204 97.952827,41.411121 98.053650,59.574215 
	C98.068108,62.180283 98.800316,64.782364 99.242409,67.765709 
	C95.287201,82.282280 91.275780,96.415466 87.304474,110.559906 
	C86.497711,113.433319 86.251778,116.438911 89.684334,117.679634 
	C92.944160,118.857925 94.420303,116.415665 95.882584,114.067108 
	C96.820778,116.422195 97.897926,118.547058 97.920502,120.683075 
	C98.072517,135.065094 98.000824,149.449463 98.001595,163.833069 
	C86.644379,163.879623 75.287155,163.926178 63.465981,163.902847 
	C63.001396,143.129898 62.972870,122.426735 63.037243,101.723854 
	C63.044853,99.275192 63.561382,96.828102 64.314552,94.133423 
	C67.036400,96.089752 69.254539,98.325958 71.543831,100.486778 
	C73.807556,102.623466 76.375938,103.854088 78.886047,101.088013 
	C81.232178,98.502609 79.742424,96.172050 77.690826,94.177696 
	C74.038322,90.627090 70.341507,87.122086 66.066307,83.026108 
	C70.483269,78.798027 74.573898,75.388367 77.950478,71.377563 
	C79.143715,69.960197 79.570663,66.436218 78.629723,64.997223 
	C76.839546,62.259438 74.060165,63.272793 71.865913,65.397881 
	C69.256531,67.925026 66.608604,70.412376 63.977379,72.916977 
z"/>
<path fill="#7B61F4" opacity="1.000000" stroke="none" 
	d="
M99.200363,67.386292 
	C98.800316,64.782364 98.068108,62.180283 98.053650,59.574215 
	C97.952827,41.411121 98.000725,23.247204 98.001328,4.625553 
	C107.359131,4.119077 116.716591,4.070598 126.537491,4.552732 
	C126.973083,24.809423 126.945244,44.535503 126.578964,64.169342 
	C124.197800,64.564072 122.155083,65.051033 120.112358,65.537994 
	C120.640205,67.613380 120.535583,70.281143 121.817703,71.650085 
	C125.289307,75.356781 129.349869,78.511871 133.176849,81.885727 
	C132.038040,83.142159 132.068329,83.358002 131.975021,83.455086 
	C128.646606,86.918442 125.354515,90.418716 121.954002,93.810211 
	C118.902916,96.853210 118.463234,99.715218 122.127045,103.038147 
	C122.063881,123.634209 122.032288,143.733749 122.000694,163.833282 
	C114.310272,163.880051 106.619850,163.926819 98.465515,163.903320 
	C98.000824,149.449463 98.072517,135.065094 97.920502,120.683075 
	C97.897926,118.547058 96.820778,116.422195 95.989746,113.683182 
	C101.233444,93.827766 106.663628,74.565247 112.258774,55.350761 
	C113.192177,52.145302 113.005302,49.527210 109.699966,48.413578 
	C106.137878,47.213436 104.699005,49.748032 103.795067,52.734127 
	C102.312126,57.632900 100.736755,62.503696 99.200363,67.386292 
z"/>
<path fill="#885EF6" opacity="1.000000" stroke="none" 
	d="
M180.117889,127.038857 
	C180.065994,143.255722 168.601410,156.867432 153.422333,161.620331 
	C153.016922,109.502701 153.003952,57.814026 152.990997,6.125350 
	C165.907532,11.177577 174.969894,19.947437 179.102127,33.385822 
	C179.662079,35.206905 179.745041,37.174664 180.010742,39.966763 
	C180.021027,69.585632 180.069458,98.312248 180.117889,127.038857 
z"/>
<path fill="#815FF5" opacity="1.000000" stroke="none" 
	d="
M152.588608,6.069349 
	C153.003952,57.814026 153.016922,109.502701 153.043610,161.668976 
	C147.345474,162.756332 141.633621,163.366089 135.461273,163.508698 
	C134.975006,139.951294 134.949203,116.861061 135.072510,93.480431 
	C136.500809,91.885521 137.770920,90.571976 139.060684,89.278038 
	C144.622360,83.698372 144.638138,82.477463 139.088287,76.740990 
	C135.048111,72.564957 130.975540,68.420250 126.917404,64.261581 
	C126.945244,44.535503 126.973083,24.809423 127.001266,4.625325 
	C135.426788,4.369252 144.002945,2.511318 152.588608,6.069349 
z"/>
<path fill="#7F5FF4" opacity="1.000000" stroke="none" 
	d="
M134.923401,93.770828 
	C134.949203,116.861061 134.975006,139.951294 135.001022,163.437469 
	C130.973404,163.880692 126.945564,163.927994 122.459213,163.904297 
	C122.032288,143.733749 122.063881,123.634209 122.479736,103.080048 
	C124.483429,101.955086 126.351860,101.597382 127.669411,100.548019 
	C130.249802,98.492859 132.523041,96.052032 134.923401,93.770828 
z"/>
<path fill="#FFFFFF" opacity="1.000000" stroke="none" 
	d="
M19.502472,38.184364 
	C19.916842,62.573689 19.945463,87.180031 19.998493,111.786308 
	C20.011036,117.606140 20.105595,123.425797 20.093163,129.723938 
	C19.682680,129.197800 19.043901,128.193344 19.043509,127.188644 
	C19.031944,97.592896 19.083849,67.997124 19.502472,38.184364 
z"/>
<path fill="#FFFFFF" opacity="1.000000" stroke="none" 
	d="
M180.494537,126.821228 
	C180.069458,98.312248 180.021027,69.585632 180.022400,40.388119 
	C180.381302,40.760010 180.960251,41.602768 180.960388,42.445614 
	C180.964828,70.498268 180.913956,98.550941 180.494537,126.821228 
z"/>
<path fill="#FAFAFF" opacity="1.000000" stroke="none" 
	d="
M63.830421,73.219879 
	C66.608604,70.412376 69.256531,67.925026 71.865913,65.397881 
	C74.060165,63.272793 76.839546,62.259438 78.629723,64.997223 
	C79.570663,66.436218 79.143715,69.960197 77.950478,71.377563 
	C74.573898,75.388367 70.483269,78.798027 66.066307,83.026108 
	C70.341507,87.122086 74.038322,90.627090 77.690826,94.177696 
	C79.742424,96.172050 81.232178,98.502609 78.886047,101.088013 
	C76.375938,103.854088 73.807556,102.623466 71.543831,100.486778 
	C69.254539,98.325958 67.036400,96.089752 64.483276,93.719681 
	C62.245747,91.494339 60.356857,89.391380 58.367638,87.388031 
	C55.493122,84.493118 55.237183,81.722610 58.393742,78.831810 
	C60.234135,77.146370 61.925209,75.297897 63.830421,73.219879 
z"/>
<path fill="#FAF9FF" opacity="1.000000" stroke="none" 
	d="
M99.242401,67.765709 
	C100.736755,62.503696 102.312126,57.632900 103.795067,52.734127 
	C104.699005,49.748032 106.137878,47.213436 109.699966,48.413578 
	C113.005302,49.527210 113.192177,52.145302 112.258774,55.350761 
	C106.663628,74.565247 101.233444,93.827766 95.640816,113.458115 
	C94.420303,116.415665 92.944160,118.857925 89.684334,117.679634 
	C86.251778,116.438911 86.497711,113.433319 87.304474,110.559906 
	C91.275780,96.415466 95.287201,82.282280 99.242401,67.765709 
z"/>
<path fill="#F8F6FE" opacity="1.000000" stroke="none" 
	d="
M135.072510,93.480431 
	C132.523041,96.052032 130.249802,98.492859 127.669411,100.548019 
	C126.351860,101.597382 124.483429,101.955086 122.511307,102.583511 
	C118.463234,99.715218 118.902916,96.853210 121.954002,93.810211 
	C125.354515,90.418716 128.646606,86.918442 131.975021,83.455086 
	C132.068329,83.358002 132.038040,83.142159 133.176849,81.885727 
	C129.349869,78.511871 125.289307,75.356781 121.817703,71.650085 
	C120.535583,70.281143 120.640205,67.613380 120.112358,65.537994 
	C122.155083,65.051033 124.197800,64.564072 126.578964,64.169342 
	C130.975540,68.420250 135.048111,72.564957 139.088287,76.740990 
	C144.638138,82.477463 144.622360,83.698372 139.060684,89.278038 
	C137.770920,90.571976 136.500809,91.885521 135.072510,93.480431 
z"/>
</svg>